<?xml version="1.0" encoding="utf-8"?>
<!DOCTYPE svg PUBLIC "-//W3C//DTD SVG 20010904//EN" "http://www.w3.org/TR/2001/REC-SVG-20010904/DTD/svg10.dtd">
<svg xmlns="http://www.w3.org/2000/svg" xml:space="preserve" xmlns:xlink="http://www.w3.org/1999/xlink" width="250" height="250" viewBox="0 0 250 250">
<desc></desc>
<rect width="250" height="250" fill="#ffffff" cx="0" cy="0" />
<defs>
<rect id="p" width="10" height="10" />
</defs>
<g fill="#000000">
<use x="20" y="20" xlink:href="#p" />
<use x="30" y="20" xlink:href="#p" />
<use x="40" y="20" xlink:href="#p" />
<use x="50" y="20" xlink:href="#p" />
<use x="60" y="20" xlink:href="#p" />
<use x="70" y="20" xlink:href="#p" />
<use x="80" y="20" xlink:href="#p" />
<use x="120" y="20" xlink:href="#p" />
<use x="140" y="20" xlink:href="#p" />
<use x="160" y="20" xlink:href="#p" />
<use x="170" y="20" xlink:href="#p" />
<use x="180" y="20" xlink:href="#p" />
<use x="190" y="20" xlink:href="#p" />
<use x="200" y="20" xlink:href="#p" />
<use x="210" y="20" xlink:href="#p" />
<use x="220" y="20" xlink:href="#p" />
<use x="20" y="30" xlink:href="#p" />
<use x="80" y="30" xlink:href="#p" />
<use x="100" y="30" xlink:href="#p" />
<use x="160" y="30" xlink:href="#p" />
<use x="220" y="30" xlink:href="#p" />
<use x="20" y="40" xlink:href="#p" />
<use x="40" y="40" xlink:href="#p" />
<use x="50" y="40" xlink:href="#p" />
<use x="60" y="40" xlink:href="#p" />
<use x="80" y="40" xlink:href="#p" />
<use x="110" y="40" xlink:href="#p" />
<use x="160" y="40" xlink:href="#p" />
<use x="180" y="40" xlink:href="#p" />
<use x="190" y="40" xlink:href="#p" />
<use x="200" y="40" xlink:href="#p" />
<use x="220" y="40" xlink:href="#p" />
<use x="20" y="50" xlink:href="#p" />
<use x="40" y="50" xlink:href="#p" />
<use x="50" y="50" xlink:href="#p" />
<use x="60" y="50" xlink:href="#p" />
<use x="80" y="50" xlink:href="#p" />
<use x="110" y="50" xlink:href="#p" />
<use x="120" y="50" xlink:href="#p" />
<use x="160" y="50" xlink:href="#p" />
<use x="180" y="50" xlink:href="#p" />
<use x="190" y="50" xlink:href="#p" />
<use x="200" y="50" xlink:href="#p" />
<use x="220" y="50" xlink:href="#p" />
<use x="20" y="60" xlink:href="#p" />
<use x="40" y="60" xlink:href="#p" />
<use x="50" y="60" xlink:href="#p" />
<use x="60" y="60" xlink:href="#p" />
<use x="80" y="60" xlink:href="#p" />
<use x="100" y="60" xlink:href="#p" />
<use x="110" y="60" xlink:href="#p" />
<use x="140" y="60" xlink:href="#p" />
<use x="160" y="60" xlink:href="#p" />
<use x="180" y="60" xlink:href="#p" />
<use x="190" y="60" xlink:href="#p" />
<use x="200" y="60" xlink:href="#p" />
<use x="220" y="60" xlink:href="#p" />
<use x="20" y="70" xlink:href="#p" />
<use x="80" y="70" xlink:href="#p" />
<use x="110" y="70" xlink:href="#p" />
<use x="120" y="70" xlink:href="#p" />
<use x="140" y="70" xlink:href="#p" />
<use x="160" y="70" xlink:href="#p" />
<use x="220" y="70" xlink:href="#p" />
<use x="20" y="80" xlink:href="#p" />
<use x="30" y="80" xlink:href="#p" />
<use x="40" y="80" xlink:href="#p" />
<use x="50" y="80" xlink:href="#p" />
<use x="60" y="80" xlink:href="#p" />
<use x="70" y="80" xlink:href="#p" />
<use x="80" y="80" xlink:href="#p" />
<use x="100" y="80" xlink:href="#p" />
<use x="120" y="80" xlink:href="#p" />
<use x="140" y="80" xlink:href="#p" />
<use x="160" y="80" xlink:href="#p" />
<use x="170" y="80" xlink:href="#p" />
<use x="180" y="80" xlink:href="#p" />
<use x="190" y="80" xlink:href="#p" />
<use x="200" y="80" xlink:href="#p" />
<use x="210" y="80" xlink:href="#p" />
<use x="220" y="80" xlink:href="#p" />
<use x="110" y="90" xlink:href="#p" />
<use x="120" y="90" xlink:href="#p" />
<use x="130" y="90" xlink:href="#p" />
<use x="140" y="90" xlink:href="#p" />
<use x="20" y="100" xlink:href="#p" />
<use x="40" y="100" xlink:href="#p" />
<use x="60" y="100" xlink:href="#p" />
<use x="80" y="100" xlink:href="#p" />
<use x="120" y="100" xlink:href="#p" />
<use x="130" y="100" xlink:href="#p" />
<use x="180" y="100" xlink:href="#p" />
<use x="210" y="100" xlink:href="#p" />
<use x="20" y="110" xlink:href="#p" />
<use x="70" y="110" xlink:href="#p" />
<use x="90" y="110" xlink:href="#p" />
<use x="100" y="110" xlink:href="#p" />
<use x="110" y="110" xlink:href="#p" />
<use x="120" y="110" xlink:href="#p" />
<use x="160" y="110" xlink:href="#p" />
<use x="170" y="110" xlink:href="#p" />
<use x="190" y="110" xlink:href="#p" />
<use x="220" y="110" xlink:href="#p" />
<use x="20" y="120" xlink:href="#p" />
<use x="30" y="120" xlink:href="#p" />
<use x="60" y="120" xlink:href="#p" />
<use x="70" y="120" xlink:href="#p" />
<use x="80" y="120" xlink:href="#p" />
<use x="90" y="120" xlink:href="#p" />
<use x="120" y="120" xlink:href="#p" />
<use x="140" y="120" xlink:href="#p" />
<use x="180" y="120" xlink:href="#p" />
<use x="210" y="120" xlink:href="#p" />
<use x="220" y="120" xlink:href="#p" />
<use x="20" y="130" xlink:href="#p" />
<use x="30" y="130" xlink:href="#p" />
<use x="70" y="130" xlink:href="#p" />
<use x="90" y="130" xlink:href="#p" />
<use x="100" y="130" xlink:href="#p" />
<use x="120" y="130" xlink:href="#p" />
<use x="160" y="130" xlink:href="#p" />
<use x="20" y="140" xlink:href="#p" />
<use x="60" y="140" xlink:href="#p" />
<use x="70" y="140" xlink:href="#p" />
<use x="80" y="140" xlink:href="#p" />
<use x="90" y="140" xlink:href="#p" />
<use x="140" y="140" xlink:href="#p" />
<use x="160" y="140" xlink:href="#p" />
<use x="170" y="140" xlink:href="#p" />
<use x="210" y="140" xlink:href="#p" />
<use x="220" y="140" xlink:href="#p" />
<use x="100" y="150" xlink:href="#p" />
<use x="110" y="150" xlink:href="#p" />
<use x="120" y="150" xlink:href="#p" />
<use x="130" y="150" xlink:href="#p" />
<use x="150" y="150" xlink:href="#p" />
<use x="170" y="150" xlink:href="#p" />
<use x="180" y="150" xlink:href="#p" />
<use x="200" y="150" xlink:href="#p" />
<use x="220" y="150" xlink:href="#p" />
<use x="20" y="160" xlink:href="#p" />
<use x="30" y="160" xlink:href="#p" />
<use x="40" y="160" xlink:href="#p" />
<use x="50" y="160" xlink:href="#p" />
<use x="60" y="160" xlink:href="#p" />
<use x="70" y="160" xlink:href="#p" />
<use x="80" y="160" xlink:href="#p" />
<use x="110" y="160" xlink:href="#p" />
<use x="120" y="160" xlink:href="#p" />
<use x="130" y="160" xlink:href="#p" />
<use x="150" y="160" xlink:href="#p" />
<use x="160" y="160" xlink:href="#p" />
<use x="170" y="160" xlink:href="#p" />
<use x="180" y="160" xlink:href="#p" />
<use x="200" y="160" xlink:href="#p" />
<use x="210" y="160" xlink:href="#p" />
<use x="220" y="160" xlink:href="#p" />
<use x="20" y="170" xlink:href="#p" />
<use x="80" y="170" xlink:href="#p" />
<use x="110" y="170" xlink:href="#p" />
<use x="130" y="170" xlink:href="#p" />
<use x="140" y="170" xlink:href="#p" />
<use x="150" y="170" xlink:href="#p" />
<use x="180" y="170" xlink:href="#p" />
<use x="190" y="170" xlink:href="#p" />
<use x="220" y="170" xlink:href="#p" />
<use x="20" y="180" xlink:href="#p" />
<use x="40" y="180" xlink:href="#p" />
<use x="50" y="180" xlink:href="#p" />
<use x="60" y="180" xlink:href="#p" />
<use x="80" y="180" xlink:href="#p" />
<use x="100" y="180" xlink:href="#p" />
<use x="120" y="180" xlink:href="#p" />
<use x="130" y="180" xlink:href="#p" />
<use x="150" y="180" xlink:href="#p" />
<use x="160" y="180" xlink:href="#p" />
<use x="170" y="180" xlink:href="#p" />
<use x="210" y="180" xlink:href="#p" />
<use x="220" y="180" xlink:href="#p" />
<use x="20" y="190" xlink:href="#p" />
<use x="40" y="190" xlink:href="#p" />
<use x="50" y="190" xlink:href="#p" />
<use x="60" y="190" xlink:href="#p" />
<use x="80" y="190" xlink:href="#p" />
<use x="110" y="190" xlink:href="#p" />
<use x="120" y="190" xlink:href="#p" />
<use x="160" y="190" xlink:href="#p" />
<use x="170" y="190" xlink:href="#p" />
<use x="180" y="190" xlink:href="#p" />
<use x="200" y="190" xlink:href="#p" />
<use x="210" y="190" xlink:href="#p" />
<use x="20" y="200" xlink:href="#p" />
<use x="40" y="200" xlink:href="#p" />
<use x="50" y="200" xlink:href="#p" />
<use x="60" y="200" xlink:href="#p" />
<use x="80" y="200" xlink:href="#p" />
<use x="100" y="200" xlink:href="#p" />
<use x="140" y="200" xlink:href="#p" />
<use x="170" y="200" xlink:href="#p" />
<use x="180" y="200" xlink:href="#p" />
<use x="220" y="200" xlink:href="#p" />
<use x="20" y="210" xlink:href="#p" />
<use x="80" y="210" xlink:href="#p" />
<use x="110" y="210" xlink:href="#p" />
<use x="160" y="210" xlink:href="#p" />
<use x="180" y="210" xlink:href="#p" />
<use x="210" y="210" xlink:href="#p" />
<use x="20" y="220" xlink:href="#p" />
<use x="30" y="220" xlink:href="#p" />
<use x="40" y="220" xlink:href="#p" />
<use x="50" y="220" xlink:href="#p" />
<use x="60" y="220" xlink:href="#p" />
<use x="70" y="220" xlink:href="#p" />
<use x="80" y="220" xlink:href="#p" />
<use x="100" y="220" xlink:href="#p" />
<use x="110" y="220" xlink:href="#p" />
<use x="120" y="220" xlink:href="#p" />
<use x="140" y="220" xlink:href="#p" />
<use x="160" y="220" xlink:href="#p" />
<use x="180" y="220" xlink:href="#p" />
<use x="210" y="220" xlink:href="#p" />
<use x="220" y="220" xlink:href="#p" />
</g>
</svg>