<?xml version="1.0" encoding="utf-8"?>
<!DOCTYPE svg PUBLIC "-//W3C//DTD SVG 20010904//EN" "http://www.w3.org/TR/2001/REC-SVG-20010904/DTD/svg10.dtd">
<svg xmlns="http://www.w3.org/2000/svg" xml:space="preserve" xmlns:xlink="http://www.w3.org/1999/xlink" width="200" height="200" viewBox="0 0 200 200">
<desc></desc>
<rect width="200" height="200" fill="#ffffff" cx="0" cy="0" />
<defs>
<rect id="p" width="8" height="8" />
</defs>
<g fill="#b35f5f">
<use x="16" y="16" xlink:href="#p" />
<use x="24" y="16" xlink:href="#p" />
<use x="32" y="16" xlink:href="#p" />
<use x="40" y="16" xlink:href="#p" />
<use x="48" y="16" xlink:href="#p" />
<use x="56" y="16" xlink:href="#p" />
<use x="64" y="16" xlink:href="#p" />
<use x="88" y="16" xlink:href="#p" />
<use x="112" y="16" xlink:href="#p" />
<use x="128" y="16" xlink:href="#p" />
<use x="136" y="16" xlink:href="#p" />
<use x="144" y="16" xlink:href="#p" />
<use x="152" y="16" xlink:href="#p" />
<use x="160" y="16" xlink:href="#p" />
<use x="168" y="16" xlink:href="#p" />
<use x="176" y="16" xlink:href="#p" />
<use x="16" y="24" xlink:href="#p" />
<use x="64" y="24" xlink:href="#p" />
<use x="80" y="24" xlink:href="#p" />
<use x="104" y="24" xlink:href="#p" />
<use x="128" y="24" xlink:href="#p" />
<use x="176" y="24" xlink:href="#p" />
<use x="16" y="32" xlink:href="#p" />
<use x="32" y="32" xlink:href="#p" />
<use x="40" y="32" xlink:href="#p" />
<use x="48" y="32" xlink:href="#p" />
<use x="64" y="32" xlink:href="#p" />
<use x="88" y="32" xlink:href="#p" />
<use x="128" y="32" xlink:href="#p" />
<use x="144" y="32" xlink:href="#p" />
<use x="152" y="32" xlink:href="#p" />
<use x="160" y="32" xlink:href="#p" />
<use x="176" y="32" xlink:href="#p" />
<use x="16" y="40" xlink:href="#p" />
<use x="32" y="40" xlink:href="#p" />
<use x="40" y="40" xlink:href="#p" />
<use x="48" y="40" xlink:href="#p" />
<use x="64" y="40" xlink:href="#p" />
<use x="80" y="40" xlink:href="#p" />
<use x="104" y="40" xlink:href="#p" />
<use x="128" y="40" xlink:href="#p" />
<use x="144" y="40" xlink:href="#p" />
<use x="152" y="40" xlink:href="#p" />
<use x="160" y="40" xlink:href="#p" />
<use x="176" y="40" xlink:href="#p" />
<use x="16" y="48" xlink:href="#p" />
<use x="32" y="48" xlink:href="#p" />
<use x="40" y="48" xlink:href="#p" />
<use x="48" y="48" xlink:href="#p" />
<use x="64" y="48" xlink:href="#p" />
<use x="96" y="48" xlink:href="#p" />
<use x="104" y="48" xlink:href="#p" />
<use x="112" y="48" xlink:href="#p" />
<use x="128" y="48" xlink:href="#p" />
<use x="144" y="48" xlink:href="#p" />
<use x="152" y="48" xlink:href="#p" />
<use x="160" y="48" xlink:href="#p" />
<use x="176" y="48" xlink:href="#p" />
<use x="16" y="56" xlink:href="#p" />
<use x="64" y="56" xlink:href="#p" />
<use x="80" y="56" xlink:href="#p" />
<use x="88" y="56" xlink:href="#p" />
<use x="96" y="56" xlink:href="#p" />
<use x="112" y="56" xlink:href="#p" />
<use x="128" y="56" xlink:href="#p" />
<use x="176" y="56" xlink:href="#p" />
<use x="16" y="64" xlink:href="#p" />
<use x="24" y="64" xlink:href="#p" />
<use x="32" y="64" xlink:href="#p" />
<use x="40" y="64" xlink:href="#p" />
<use x="48" y="64" xlink:href="#p" />
<use x="56" y="64" xlink:href="#p" />
<use x="64" y="64" xlink:href="#p" />
<use x="80" y="64" xlink:href="#p" />
<use x="96" y="64" xlink:href="#p" />
<use x="112" y="64" xlink:href="#p" />
<use x="128" y="64" xlink:href="#p" />
<use x="136" y="64" xlink:href="#p" />
<use x="144" y="64" xlink:href="#p" />
<use x="152" y="64" xlink:href="#p" />
<use x="160" y="64" xlink:href="#p" />
<use x="168" y="64" xlink:href="#p" />
<use x="176" y="64" xlink:href="#p" />
<use x="96" y="72" xlink:href="#p" />
<use x="104" y="72" xlink:href="#p" />
<use x="112" y="72" xlink:href="#p" />
<use x="16" y="80" xlink:href="#p" />
<use x="24" y="80" xlink:href="#p" />
<use x="32" y="80" xlink:href="#p" />
<use x="40" y="80" xlink:href="#p" />
<use x="48" y="80" xlink:href="#p" />
<use x="64" y="80" xlink:href="#p" />
<use x="72" y="80" xlink:href="#p" />
<use x="80" y="80" xlink:href="#p" />
<use x="88" y="80" xlink:href="#p" />
<use x="112" y="80" xlink:href="#p" />
<use x="120" y="80" xlink:href="#p" />
<use x="136" y="80" xlink:href="#p" />
<use x="152" y="80" xlink:href="#p" />
<use x="168" y="80" xlink:href="#p" />
<use x="32" y="88" xlink:href="#p" />
<use x="40" y="88" xlink:href="#p" />
<use x="88" y="88" xlink:href="#p" />
<use x="96" y="88" xlink:href="#p" />
<use x="112" y="88" xlink:href="#p" />
<use x="136" y="88" xlink:href="#p" />
<use x="144" y="88" xlink:href="#p" />
<use x="152" y="88" xlink:href="#p" />
<use x="160" y="88" xlink:href="#p" />
<use x="176" y="88" xlink:href="#p" />
<use x="24" y="96" xlink:href="#p" />
<use x="32" y="96" xlink:href="#p" />
<use x="48" y="96" xlink:href="#p" />
<use x="56" y="96" xlink:href="#p" />
<use x="64" y="96" xlink:href="#p" />
<use x="88" y="96" xlink:href="#p" />
<use x="104" y="96" xlink:href="#p" />
<use x="120" y="96" xlink:href="#p" />
<use x="128" y="96" xlink:href="#p" />
<use x="152" y="96" xlink:href="#p" />
<use x="160" y="96" xlink:href="#p" />
<use x="168" y="96" xlink:href="#p" />
<use x="32" y="104" xlink:href="#p" />
<use x="56" y="104" xlink:href="#p" />
<use x="72" y="104" xlink:href="#p" />
<use x="80" y="104" xlink:href="#p" />
<use x="96" y="104" xlink:href="#p" />
<use x="120" y="104" xlink:href="#p" />
<use x="136" y="104" xlink:href="#p" />
<use x="144" y="104" xlink:href="#p" />
<use x="152" y="104" xlink:href="#p" />
<use x="160" y="104" xlink:href="#p" />
<use x="176" y="104" xlink:href="#p" />
<use x="48" y="112" xlink:href="#p" />
<use x="56" y="112" xlink:href="#p" />
<use x="64" y="112" xlink:href="#p" />
<use x="80" y="112" xlink:href="#p" />
<use x="104" y="112" xlink:href="#p" />
<use x="128" y="112" xlink:href="#p" />
<use x="144" y="112" xlink:href="#p" />
<use x="80" y="120" xlink:href="#p" />
<use x="88" y="120" xlink:href="#p" />
<use x="96" y="120" xlink:href="#p" />
<use x="104" y="120" xlink:href="#p" />
<use x="112" y="120" xlink:href="#p" />
<use x="120" y="120" xlink:href="#p" />
<use x="128" y="120" xlink:href="#p" />
<use x="136" y="120" xlink:href="#p" />
<use x="144" y="120" xlink:href="#p" />
<use x="152" y="120" xlink:href="#p" />
<use x="160" y="120" xlink:href="#p" />
<use x="168" y="120" xlink:href="#p" />
<use x="176" y="120" xlink:href="#p" />
<use x="16" y="128" xlink:href="#p" />
<use x="24" y="128" xlink:href="#p" />
<use x="32" y="128" xlink:href="#p" />
<use x="40" y="128" xlink:href="#p" />
<use x="48" y="128" xlink:href="#p" />
<use x="56" y="128" xlink:href="#p" />
<use x="64" y="128" xlink:href="#p" />
<use x="80" y="128" xlink:href="#p" />
<use x="112" y="128" xlink:href="#p" />
<use x="120" y="128" xlink:href="#p" />
<use x="128" y="128" xlink:href="#p" />
<use x="136" y="128" xlink:href="#p" />
<use x="160" y="128" xlink:href="#p" />
<use x="168" y="128" xlink:href="#p" />
<use x="16" y="136" xlink:href="#p" />
<use x="64" y="136" xlink:href="#p" />
<use x="88" y="136" xlink:href="#p" />
<use x="104" y="136" xlink:href="#p" />
<use x="112" y="136" xlink:href="#p" />
<use x="120" y="136" xlink:href="#p" />
<use x="136" y="136" xlink:href="#p" />
<use x="144" y="136" xlink:href="#p" />
<use x="152" y="136" xlink:href="#p" />
<use x="160" y="136" xlink:href="#p" />
<use x="176" y="136" xlink:href="#p" />
<use x="16" y="144" xlink:href="#p" />
<use x="32" y="144" xlink:href="#p" />
<use x="40" y="144" xlink:href="#p" />
<use x="48" y="144" xlink:href="#p" />
<use x="64" y="144" xlink:href="#p" />
<use x="80" y="144" xlink:href="#p" />
<use x="96" y="144" xlink:href="#p" />
<use x="112" y="144" xlink:href="#p" />
<use x="128" y="144" xlink:href="#p" />
<use x="176" y="144" xlink:href="#p" />
<use x="16" y="152" xlink:href="#p" />
<use x="32" y="152" xlink:href="#p" />
<use x="40" y="152" xlink:href="#p" />
<use x="48" y="152" xlink:href="#p" />
<use x="64" y="152" xlink:href="#p" />
<use x="80" y="152" xlink:href="#p" />
<use x="96" y="152" xlink:href="#p" />
<use x="112" y="152" xlink:href="#p" />
<use x="120" y="152" xlink:href="#p" />
<use x="128" y="152" xlink:href="#p" />
<use x="136" y="152" xlink:href="#p" />
<use x="144" y="152" xlink:href="#p" />
<use x="16" y="160" xlink:href="#p" />
<use x="32" y="160" xlink:href="#p" />
<use x="40" y="160" xlink:href="#p" />
<use x="48" y="160" xlink:href="#p" />
<use x="64" y="160" xlink:href="#p" />
<use x="80" y="160" xlink:href="#p" />
<use x="96" y="160" xlink:href="#p" />
<use x="104" y="160" xlink:href="#p" />
<use x="120" y="160" xlink:href="#p" />
<use x="152" y="160" xlink:href="#p" />
<use x="160" y="160" xlink:href="#p" />
<use x="16" y="168" xlink:href="#p" />
<use x="64" y="168" xlink:href="#p" />
<use x="80" y="168" xlink:href="#p" />
<use x="88" y="168" xlink:href="#p" />
<use x="96" y="168" xlink:href="#p" />
<use x="136" y="168" xlink:href="#p" />
<use x="144" y="168" xlink:href="#p" />
<use x="152" y="168" xlink:href="#p" />
<use x="160" y="168" xlink:href="#p" />
<use x="16" y="176" xlink:href="#p" />
<use x="24" y="176" xlink:href="#p" />
<use x="32" y="176" xlink:href="#p" />
<use x="40" y="176" xlink:href="#p" />
<use x="48" y="176" xlink:href="#p" />
<use x="56" y="176" xlink:href="#p" />
<use x="64" y="176" xlink:href="#p" />
<use x="80" y="176" xlink:href="#p" />
<use x="104" y="176" xlink:href="#p" />
<use x="168" y="176" xlink:href="#p" />
</g>
</svg>