<?xml version="1.0" encoding="utf-8"?>
<!DOCTYPE svg PUBLIC "-//W3C//DTD SVG 20010904//EN" "http://www.w3.org/TR/2001/REC-SVG-20010904/DTD/svg10.dtd">
<svg xmlns="http://www.w3.org/2000/svg" xml:space="preserve" xmlns:xlink="http://www.w3.org/1999/xlink" width="174" height="174" viewBox="0 0 174 174">
<desc></desc>
<rect width="174" height="174" fill="#d44242" cx="0" cy="0" />
<defs>
<rect id="p" width="6" height="6" />
</defs>
<g fill="#8f0f0f">
<use x="12" y="12" xlink:href="#p" />
<use x="18" y="12" xlink:href="#p" />
<use x="24" y="12" xlink:href="#p" />
<use x="30" y="12" xlink:href="#p" />
<use x="36" y="12" xlink:href="#p" />
<use x="42" y="12" xlink:href="#p" />
<use x="48" y="12" xlink:href="#p" />
<use x="84" y="12" xlink:href="#p" />
<use x="96" y="12" xlink:href="#p" />
<use x="108" y="12" xlink:href="#p" />
<use x="120" y="12" xlink:href="#p" />
<use x="126" y="12" xlink:href="#p" />
<use x="132" y="12" xlink:href="#p" />
<use x="138" y="12" xlink:href="#p" />
<use x="144" y="12" xlink:href="#p" />
<use x="150" y="12" xlink:href="#p" />
<use x="156" y="12" xlink:href="#p" />
<use x="12" y="18" xlink:href="#p" />
<use x="48" y="18" xlink:href="#p" />
<use x="66" y="18" xlink:href="#p" />
<use x="84" y="18" xlink:href="#p" />
<use x="90" y="18" xlink:href="#p" />
<use x="102" y="18" xlink:href="#p" />
<use x="108" y="18" xlink:href="#p" />
<use x="120" y="18" xlink:href="#p" />
<use x="156" y="18" xlink:href="#p" />
<use x="12" y="24" xlink:href="#p" />
<use x="24" y="24" xlink:href="#p" />
<use x="30" y="24" xlink:href="#p" />
<use x="36" y="24" xlink:href="#p" />
<use x="48" y="24" xlink:href="#p" />
<use x="60" y="24" xlink:href="#p" />
<use x="66" y="24" xlink:href="#p" />
<use x="96" y="24" xlink:href="#p" />
<use x="102" y="24" xlink:href="#p" />
<use x="108" y="24" xlink:href="#p" />
<use x="120" y="24" xlink:href="#p" />
<use x="132" y="24" xlink:href="#p" />
<use x="138" y="24" xlink:href="#p" />
<use x="144" y="24" xlink:href="#p" />
<use x="156" y="24" xlink:href="#p" />
<use x="12" y="30" xlink:href="#p" />
<use x="24" y="30" xlink:href="#p" />
<use x="30" y="30" xlink:href="#p" />
<use x="36" y="30" xlink:href="#p" />
<use x="48" y="30" xlink:href="#p" />
<use x="60" y="30" xlink:href="#p" />
<use x="90" y="30" xlink:href="#p" />
<use x="102" y="30" xlink:href="#p" />
<use x="120" y="30" xlink:href="#p" />
<use x="132" y="30" xlink:href="#p" />
<use x="138" y="30" xlink:href="#p" />
<use x="144" y="30" xlink:href="#p" />
<use x="156" y="30" xlink:href="#p" />
<use x="12" y="36" xlink:href="#p" />
<use x="24" y="36" xlink:href="#p" />
<use x="30" y="36" xlink:href="#p" />
<use x="36" y="36" xlink:href="#p" />
<use x="48" y="36" xlink:href="#p" />
<use x="60" y="36" xlink:href="#p" />
<use x="66" y="36" xlink:href="#p" />
<use x="90" y="36" xlink:href="#p" />
<use x="108" y="36" xlink:href="#p" />
<use x="120" y="36" xlink:href="#p" />
<use x="132" y="36" xlink:href="#p" />
<use x="138" y="36" xlink:href="#p" />
<use x="144" y="36" xlink:href="#p" />
<use x="156" y="36" xlink:href="#p" />
<use x="12" y="42" xlink:href="#p" />
<use x="48" y="42" xlink:href="#p" />
<use x="60" y="42" xlink:href="#p" />
<use x="72" y="42" xlink:href="#p" />
<use x="90" y="42" xlink:href="#p" />
<use x="96" y="42" xlink:href="#p" />
<use x="102" y="42" xlink:href="#p" />
<use x="108" y="42" xlink:href="#p" />
<use x="120" y="42" xlink:href="#p" />
<use x="156" y="42" xlink:href="#p" />
<use x="12" y="48" xlink:href="#p" />
<use x="18" y="48" xlink:href="#p" />
<use x="24" y="48" xlink:href="#p" />
<use x="30" y="48" xlink:href="#p" />
<use x="36" y="48" xlink:href="#p" />
<use x="42" y="48" xlink:href="#p" />
<use x="48" y="48" xlink:href="#p" />
<use x="60" y="48" xlink:href="#p" />
<use x="72" y="48" xlink:href="#p" />
<use x="84" y="48" xlink:href="#p" />
<use x="96" y="48" xlink:href="#p" />
<use x="108" y="48" xlink:href="#p" />
<use x="120" y="48" xlink:href="#p" />
<use x="126" y="48" xlink:href="#p" />
<use x="132" y="48" xlink:href="#p" />
<use x="138" y="48" xlink:href="#p" />
<use x="144" y="48" xlink:href="#p" />
<use x="150" y="48" xlink:href="#p" />
<use x="156" y="48" xlink:href="#p" />
<use x="60" y="54" xlink:href="#p" />
<use x="78" y="54" xlink:href="#p" />
<use x="84" y="54" xlink:href="#p" />
<use x="102" y="54" xlink:href="#p" />
<use x="12" y="60" xlink:href="#p" />
<use x="24" y="60" xlink:href="#p" />
<use x="30" y="60" xlink:href="#p" />
<use x="36" y="60" xlink:href="#p" />
<use x="42" y="60" xlink:href="#p" />
<use x="48" y="60" xlink:href="#p" />
<use x="66" y="60" xlink:href="#p" />
<use x="84" y="60" xlink:href="#p" />
<use x="90" y="60" xlink:href="#p" />
<use x="96" y="60" xlink:href="#p" />
<use x="120" y="60" xlink:href="#p" />
<use x="126" y="60" xlink:href="#p" />
<use x="132" y="60" xlink:href="#p" />
<use x="138" y="60" xlink:href="#p" />
<use x="144" y="60" xlink:href="#p" />
<use x="12" y="66" xlink:href="#p" />
<use x="18" y="66" xlink:href="#p" />
<use x="24" y="66" xlink:href="#p" />
<use x="30" y="66" xlink:href="#p" />
<use x="36" y="66" xlink:href="#p" />
<use x="42" y="66" xlink:href="#p" />
<use x="84" y="66" xlink:href="#p" />
<use x="108" y="66" xlink:href="#p" />
<use x="126" y="66" xlink:href="#p" />
<use x="138" y="66" xlink:href="#p" />
<use x="12" y="72" xlink:href="#p" />
<use x="24" y="72" xlink:href="#p" />
<use x="36" y="72" xlink:href="#p" />
<use x="48" y="72" xlink:href="#p" />
<use x="72" y="72" xlink:href="#p" />
<use x="84" y="72" xlink:href="#p" />
<use x="90" y="72" xlink:href="#p" />
<use x="102" y="72" xlink:href="#p" />
<use x="108" y="72" xlink:href="#p" />
<use x="126" y="72" xlink:href="#p" />
<use x="132" y="72" xlink:href="#p" />
<use x="138" y="72" xlink:href="#p" />
<use x="144" y="72" xlink:href="#p" />
<use x="150" y="72" xlink:href="#p" />
<use x="156" y="72" xlink:href="#p" />
<use x="12" y="78" xlink:href="#p" />
<use x="24" y="78" xlink:href="#p" />
<use x="30" y="78" xlink:href="#p" />
<use x="42" y="78" xlink:href="#p" />
<use x="60" y="78" xlink:href="#p" />
<use x="66" y="78" xlink:href="#p" />
<use x="78" y="78" xlink:href="#p" />
<use x="84" y="78" xlink:href="#p" />
<use x="96" y="78" xlink:href="#p" />
<use x="108" y="78" xlink:href="#p" />
<use x="120" y="78" xlink:href="#p" />
<use x="150" y="78" xlink:href="#p" />
<use x="156" y="78" xlink:href="#p" />
<use x="12" y="84" xlink:href="#p" />
<use x="18" y="84" xlink:href="#p" />
<use x="36" y="84" xlink:href="#p" />
<use x="48" y="84" xlink:href="#p" />
<use x="54" y="84" xlink:href="#p" />
<use x="72" y="84" xlink:href="#p" />
<use x="90" y="84" xlink:href="#p" />
<use x="96" y="84" xlink:href="#p" />
<use x="102" y="84" xlink:href="#p" />
<use x="114" y="84" xlink:href="#p" />
<use x="120" y="84" xlink:href="#p" />
<use x="132" y="84" xlink:href="#p" />
<use x="138" y="84" xlink:href="#p" />
<use x="144" y="84" xlink:href="#p" />
<use x="156" y="84" xlink:href="#p" />
<use x="12" y="90" xlink:href="#p" />
<use x="18" y="90" xlink:href="#p" />
<use x="42" y="90" xlink:href="#p" />
<use x="54" y="90" xlink:href="#p" />
<use x="66" y="90" xlink:href="#p" />
<use x="84" y="90" xlink:href="#p" />
<use x="90" y="90" xlink:href="#p" />
<use x="108" y="90" xlink:href="#p" />
<use x="126" y="90" xlink:href="#p" />
<use x="138" y="90" xlink:href="#p" />
<use x="144" y="90" xlink:href="#p" />
<use x="12" y="96" xlink:href="#p" />
<use x="30" y="96" xlink:href="#p" />
<use x="36" y="96" xlink:href="#p" />
<use x="48" y="96" xlink:href="#p" />
<use x="54" y="96" xlink:href="#p" />
<use x="66" y="96" xlink:href="#p" />
<use x="90" y="96" xlink:href="#p" />
<use x="96" y="96" xlink:href="#p" />
<use x="102" y="96" xlink:href="#p" />
<use x="108" y="96" xlink:href="#p" />
<use x="114" y="96" xlink:href="#p" />
<use x="126" y="96" xlink:href="#p" />
<use x="150" y="96" xlink:href="#p" />
<use x="156" y="96" xlink:href="#p" />
<use x="12" y="102" xlink:href="#p" />
<use x="24" y="102" xlink:href="#p" />
<use x="30" y="102" xlink:href="#p" />
<use x="36" y="102" xlink:href="#p" />
<use x="60" y="102" xlink:href="#p" />
<use x="66" y="102" xlink:href="#p" />
<use x="72" y="102" xlink:href="#p" />
<use x="84" y="102" xlink:href="#p" />
<use x="96" y="102" xlink:href="#p" />
<use x="108" y="102" xlink:href="#p" />
<use x="126" y="102" xlink:href="#p" />
<use x="156" y="102" xlink:href="#p" />
<use x="12" y="108" xlink:href="#p" />
<use x="24" y="108" xlink:href="#p" />
<use x="36" y="108" xlink:href="#p" />
<use x="42" y="108" xlink:href="#p" />
<use x="48" y="108" xlink:href="#p" />
<use x="60" y="108" xlink:href="#p" />
<use x="84" y="108" xlink:href="#p" />
<use x="90" y="108" xlink:href="#p" />
<use x="96" y="108" xlink:href="#p" />
<use x="108" y="108" xlink:href="#p" />
<use x="114" y="108" xlink:href="#p" />
<use x="120" y="108" xlink:href="#p" />
<use x="126" y="108" xlink:href="#p" />
<use x="132" y="108" xlink:href="#p" />
<use x="138" y="108" xlink:href="#p" />
<use x="144" y="108" xlink:href="#p" />
<use x="60" y="114" xlink:href="#p" />
<use x="72" y="114" xlink:href="#p" />
<use x="90" y="114" xlink:href="#p" />
<use x="102" y="114" xlink:href="#p" />
<use x="108" y="114" xlink:href="#p" />
<use x="132" y="114" xlink:href="#p" />
<use x="144" y="114" xlink:href="#p" />
<use x="12" y="120" xlink:href="#p" />
<use x="18" y="120" xlink:href="#p" />
<use x="24" y="120" xlink:href="#p" />
<use x="30" y="120" xlink:href="#p" />
<use x="36" y="120" xlink:href="#p" />
<use x="42" y="120" xlink:href="#p" />
<use x="48" y="120" xlink:href="#p" />
<use x="72" y="120" xlink:href="#p" />
<use x="78" y="120" xlink:href="#p" />
<use x="84" y="120" xlink:href="#p" />
<use x="96" y="120" xlink:href="#p" />
<use x="108" y="120" xlink:href="#p" />
<use x="120" y="120" xlink:href="#p" />
<use x="132" y="120" xlink:href="#p" />
<use x="138" y="120" xlink:href="#p" />
<use x="150" y="120" xlink:href="#p" />
<use x="156" y="120" xlink:href="#p" />
<use x="12" y="126" xlink:href="#p" />
<use x="48" y="126" xlink:href="#p" />
<use x="60" y="126" xlink:href="#p" />
<use x="78" y="126" xlink:href="#p" />
<use x="96" y="126" xlink:href="#p" />
<use x="108" y="126" xlink:href="#p" />
<use x="132" y="126" xlink:href="#p" />
<use x="12" y="132" xlink:href="#p" />
<use x="24" y="132" xlink:href="#p" />
<use x="30" y="132" xlink:href="#p" />
<use x="36" y="132" xlink:href="#p" />
<use x="48" y="132" xlink:href="#p" />
<use x="60" y="132" xlink:href="#p" />
<use x="66" y="132" xlink:href="#p" />
<use x="78" y="132" xlink:href="#p" />
<use x="102" y="132" xlink:href="#p" />
<use x="108" y="132" xlink:href="#p" />
<use x="114" y="132" xlink:href="#p" />
<use x="120" y="132" xlink:href="#p" />
<use x="126" y="132" xlink:href="#p" />
<use x="132" y="132" xlink:href="#p" />
<use x="138" y="132" xlink:href="#p" />
<use x="144" y="132" xlink:href="#p" />
<use x="150" y="132" xlink:href="#p" />
<use x="156" y="132" xlink:href="#p" />
<use x="12" y="138" xlink:href="#p" />
<use x="24" y="138" xlink:href="#p" />
<use x="30" y="138" xlink:href="#p" />
<use x="36" y="138" xlink:href="#p" />
<use x="48" y="138" xlink:href="#p" />
<use x="60" y="138" xlink:href="#p" />
<use x="66" y="138" xlink:href="#p" />
<use x="84" y="138" xlink:href="#p" />
<use x="90" y="138" xlink:href="#p" />
<use x="102" y="138" xlink:href="#p" />
<use x="114" y="138" xlink:href="#p" />
<use x="120" y="138" xlink:href="#p" />
<use x="132" y="138" xlink:href="#p" />
<use x="150" y="138" xlink:href="#p" />
<use x="156" y="138" xlink:href="#p" />
<use x="12" y="144" xlink:href="#p" />
<use x="24" y="144" xlink:href="#p" />
<use x="30" y="144" xlink:href="#p" />
<use x="36" y="144" xlink:href="#p" />
<use x="48" y="144" xlink:href="#p" />
<use x="60" y="144" xlink:href="#p" />
<use x="66" y="144" xlink:href="#p" />
<use x="72" y="144" xlink:href="#p" />
<use x="90" y="144" xlink:href="#p" />
<use x="96" y="144" xlink:href="#p" />
<use x="108" y="144" xlink:href="#p" />
<use x="126" y="144" xlink:href="#p" />
<use x="156" y="144" xlink:href="#p" />
<use x="12" y="150" xlink:href="#p" />
<use x="48" y="150" xlink:href="#p" />
<use x="84" y="150" xlink:href="#p" />
<use x="90" y="150" xlink:href="#p" />
<use x="102" y="150" xlink:href="#p" />
<use x="108" y="150" xlink:href="#p" />
<use x="114" y="150" xlink:href="#p" />
<use x="156" y="150" xlink:href="#p" />
<use x="12" y="156" xlink:href="#p" />
<use x="18" y="156" xlink:href="#p" />
<use x="24" y="156" xlink:href="#p" />
<use x="30" y="156" xlink:href="#p" />
<use x="36" y="156" xlink:href="#p" />
<use x="42" y="156" xlink:href="#p" />
<use x="48" y="156" xlink:href="#p" />
<use x="60" y="156" xlink:href="#p" />
<use x="84" y="156" xlink:href="#p" />
<use x="96" y="156" xlink:href="#p" />
<use x="114" y="156" xlink:href="#p" />
<use x="126" y="156" xlink:href="#p" />
<use x="144" y="156" xlink:href="#p" />
<use x="150" y="156" xlink:href="#p" />
<use x="156" y="156" xlink:href="#p" />
</g>
</svg>