<?xml version="1.0" encoding="utf-8"?>
<!DOCTYPE svg PUBLIC "-//W3C//DTD SVG 20010904//EN" "http://www.w3.org/TR/2001/REC-SVG-20010904/DTD/svg10.dtd">
<svg xmlns="http://www.w3.org/2000/svg" xml:space="preserve" xmlns:xlink="http://www.w3.org/1999/xlink" width="290" height="290" viewBox="0 0 290 290">
<desc></desc>
<rect width="290" height="290" fill="#ffffff" cx="0" cy="0" />
<defs>
<rect id="p" width="10" height="10" />
</defs>
<g fill="#000000">
<use x="20" y="20" xlink:href="#p" />
<use x="30" y="20" xlink:href="#p" />
<use x="40" y="20" xlink:href="#p" />
<use x="50" y="20" xlink:href="#p" />
<use x="60" y="20" xlink:href="#p" />
<use x="70" y="20" xlink:href="#p" />
<use x="80" y="20" xlink:href="#p" />
<use x="100" y="20" xlink:href="#p" />
<use x="140" y="20" xlink:href="#p" />
<use x="160" y="20" xlink:href="#p" />
<use x="180" y="20" xlink:href="#p" />
<use x="200" y="20" xlink:href="#p" />
<use x="210" y="20" xlink:href="#p" />
<use x="220" y="20" xlink:href="#p" />
<use x="230" y="20" xlink:href="#p" />
<use x="240" y="20" xlink:href="#p" />
<use x="250" y="20" xlink:href="#p" />
<use x="260" y="20" xlink:href="#p" />
<use x="20" y="30" xlink:href="#p" />
<use x="80" y="30" xlink:href="#p" />
<use x="100" y="30" xlink:href="#p" />
<use x="130" y="30" xlink:href="#p" />
<use x="150" y="30" xlink:href="#p" />
<use x="160" y="30" xlink:href="#p" />
<use x="180" y="30" xlink:href="#p" />
<use x="200" y="30" xlink:href="#p" />
<use x="260" y="30" xlink:href="#p" />
<use x="20" y="40" xlink:href="#p" />
<use x="40" y="40" xlink:href="#p" />
<use x="50" y="40" xlink:href="#p" />
<use x="60" y="40" xlink:href="#p" />
<use x="80" y="40" xlink:href="#p" />
<use x="120" y="40" xlink:href="#p" />
<use x="140" y="40" xlink:href="#p" />
<use x="150" y="40" xlink:href="#p" />
<use x="160" y="40" xlink:href="#p" />
<use x="200" y="40" xlink:href="#p" />
<use x="220" y="40" xlink:href="#p" />
<use x="230" y="40" xlink:href="#p" />
<use x="240" y="40" xlink:href="#p" />
<use x="260" y="40" xlink:href="#p" />
<use x="20" y="50" xlink:href="#p" />
<use x="40" y="50" xlink:href="#p" />
<use x="50" y="50" xlink:href="#p" />
<use x="60" y="50" xlink:href="#p" />
<use x="80" y="50" xlink:href="#p" />
<use x="100" y="50" xlink:href="#p" />
<use x="150" y="50" xlink:href="#p" />
<use x="170" y="50" xlink:href="#p" />
<use x="200" y="50" xlink:href="#p" />
<use x="220" y="50" xlink:href="#p" />
<use x="230" y="50" xlink:href="#p" />
<use x="240" y="50" xlink:href="#p" />
<use x="260" y="50" xlink:href="#p" />
<use x="20" y="60" xlink:href="#p" />
<use x="40" y="60" xlink:href="#p" />
<use x="50" y="60" xlink:href="#p" />
<use x="60" y="60" xlink:href="#p" />
<use x="80" y="60" xlink:href="#p" />
<use x="130" y="60" xlink:href="#p" />
<use x="140" y="60" xlink:href="#p" />
<use x="150" y="60" xlink:href="#p" />
<use x="160" y="60" xlink:href="#p" />
<use x="170" y="60" xlink:href="#p" />
<use x="180" y="60" xlink:href="#p" />
<use x="200" y="60" xlink:href="#p" />
<use x="220" y="60" xlink:href="#p" />
<use x="230" y="60" xlink:href="#p" />
<use x="240" y="60" xlink:href="#p" />
<use x="260" y="60" xlink:href="#p" />
<use x="20" y="70" xlink:href="#p" />
<use x="80" y="70" xlink:href="#p" />
<use x="110" y="70" xlink:href="#p" />
<use x="140" y="70" xlink:href="#p" />
<use x="160" y="70" xlink:href="#p" />
<use x="200" y="70" xlink:href="#p" />
<use x="260" y="70" xlink:href="#p" />
<use x="20" y="80" xlink:href="#p" />
<use x="30" y="80" xlink:href="#p" />
<use x="40" y="80" xlink:href="#p" />
<use x="50" y="80" xlink:href="#p" />
<use x="60" y="80" xlink:href="#p" />
<use x="70" y="80" xlink:href="#p" />
<use x="80" y="80" xlink:href="#p" />
<use x="100" y="80" xlink:href="#p" />
<use x="120" y="80" xlink:href="#p" />
<use x="140" y="80" xlink:href="#p" />
<use x="160" y="80" xlink:href="#p" />
<use x="180" y="80" xlink:href="#p" />
<use x="200" y="80" xlink:href="#p" />
<use x="210" y="80" xlink:href="#p" />
<use x="220" y="80" xlink:href="#p" />
<use x="230" y="80" xlink:href="#p" />
<use x="240" y="80" xlink:href="#p" />
<use x="250" y="80" xlink:href="#p" />
<use x="260" y="80" xlink:href="#p" />
<use x="100" y="90" xlink:href="#p" />
<use x="110" y="90" xlink:href="#p" />
<use x="160" y="90" xlink:href="#p" />
<use x="20" y="100" xlink:href="#p" />
<use x="40" y="100" xlink:href="#p" />
<use x="50" y="100" xlink:href="#p" />
<use x="70" y="100" xlink:href="#p" />
<use x="80" y="100" xlink:href="#p" />
<use x="90" y="100" xlink:href="#p" />
<use x="120" y="100" xlink:href="#p" />
<use x="160" y="100" xlink:href="#p" />
<use x="170" y="100" xlink:href="#p" />
<use x="180" y="100" xlink:href="#p" />
<use x="200" y="100" xlink:href="#p" />
<use x="230" y="100" xlink:href="#p" />
<use x="250" y="100" xlink:href="#p" />
<use x="260" y="100" xlink:href="#p" />
<use x="20" y="110" xlink:href="#p" />
<use x="30" y="110" xlink:href="#p" />
<use x="40" y="110" xlink:href="#p" />
<use x="50" y="110" xlink:href="#p" />
<use x="60" y="110" xlink:href="#p" />
<use x="70" y="110" xlink:href="#p" />
<use x="140" y="110" xlink:href="#p" />
<use x="180" y="110" xlink:href="#p" />
<use x="210" y="110" xlink:href="#p" />
<use x="230" y="110" xlink:href="#p" />
<use x="50" y="120" xlink:href="#p" />
<use x="60" y="120" xlink:href="#p" />
<use x="70" y="120" xlink:href="#p" />
<use x="80" y="120" xlink:href="#p" />
<use x="100" y="120" xlink:href="#p" />
<use x="110" y="120" xlink:href="#p" />
<use x="120" y="120" xlink:href="#p" />
<use x="130" y="120" xlink:href="#p" />
<use x="150" y="120" xlink:href="#p" />
<use x="160" y="120" xlink:href="#p" />
<use x="180" y="120" xlink:href="#p" />
<use x="190" y="120" xlink:href="#p" />
<use x="200" y="120" xlink:href="#p" />
<use x="210" y="120" xlink:href="#p" />
<use x="240" y="120" xlink:href="#p" />
<use x="30" y="130" xlink:href="#p" />
<use x="40" y="130" xlink:href="#p" />
<use x="60" y="130" xlink:href="#p" />
<use x="70" y="130" xlink:href="#p" />
<use x="90" y="130" xlink:href="#p" />
<use x="100" y="130" xlink:href="#p" />
<use x="120" y="130" xlink:href="#p" />
<use x="130" y="130" xlink:href="#p" />
<use x="150" y="130" xlink:href="#p" />
<use x="160" y="130" xlink:href="#p" />
<use x="170" y="130" xlink:href="#p" />
<use x="210" y="130" xlink:href="#p" />
<use x="230" y="130" xlink:href="#p" />
<use x="240" y="130" xlink:href="#p" />
<use x="250" y="130" xlink:href="#p" />
<use x="20" y="140" xlink:href="#p" />
<use x="30" y="140" xlink:href="#p" />
<use x="60" y="140" xlink:href="#p" />
<use x="80" y="140" xlink:href="#p" />
<use x="90" y="140" xlink:href="#p" />
<use x="120" y="140" xlink:href="#p" />
<use x="150" y="140" xlink:href="#p" />
<use x="160" y="140" xlink:href="#p" />
<use x="170" y="140" xlink:href="#p" />
<use x="190" y="140" xlink:href="#p" />
<use x="200" y="140" xlink:href="#p" />
<use x="220" y="140" xlink:href="#p" />
<use x="230" y="140" xlink:href="#p" />
<use x="240" y="140" xlink:href="#p" />
<use x="260" y="140" xlink:href="#p" />
<use x="30" y="150" xlink:href="#p" />
<use x="40" y="150" xlink:href="#p" />
<use x="50" y="150" xlink:href="#p" />
<use x="90" y="150" xlink:href="#p" />
<use x="100" y="150" xlink:href="#p" />
<use x="130" y="150" xlink:href="#p" />
<use x="150" y="150" xlink:href="#p" />
<use x="160" y="150" xlink:href="#p" />
<use x="170" y="150" xlink:href="#p" />
<use x="180" y="150" xlink:href="#p" />
<use x="190" y="150" xlink:href="#p" />
<use x="200" y="150" xlink:href="#p" />
<use x="210" y="150" xlink:href="#p" />
<use x="220" y="150" xlink:href="#p" />
<use x="240" y="150" xlink:href="#p" />
<use x="250" y="150" xlink:href="#p" />
<use x="260" y="150" xlink:href="#p" />
<use x="30" y="160" xlink:href="#p" />
<use x="80" y="160" xlink:href="#p" />
<use x="120" y="160" xlink:href="#p" />
<use x="140" y="160" xlink:href="#p" />
<use x="160" y="160" xlink:href="#p" />
<use x="190" y="160" xlink:href="#p" />
<use x="200" y="160" xlink:href="#p" />
<use x="230" y="160" xlink:href="#p" />
<use x="240" y="160" xlink:href="#p" />
<use x="250" y="160" xlink:href="#p" />
<use x="20" y="170" xlink:href="#p" />
<use x="40" y="170" xlink:href="#p" />
<use x="50" y="170" xlink:href="#p" />
<use x="60" y="170" xlink:href="#p" />
<use x="100" y="170" xlink:href="#p" />
<use x="110" y="170" xlink:href="#p" />
<use x="120" y="170" xlink:href="#p" />
<use x="140" y="170" xlink:href="#p" />
<use x="160" y="170" xlink:href="#p" />
<use x="180" y="170" xlink:href="#p" />
<use x="210" y="170" xlink:href="#p" />
<use x="260" y="170" xlink:href="#p" />
<use x="50" y="180" xlink:href="#p" />
<use x="60" y="180" xlink:href="#p" />
<use x="80" y="180" xlink:href="#p" />
<use x="110" y="180" xlink:href="#p" />
<use x="130" y="180" xlink:href="#p" />
<use x="150" y="180" xlink:href="#p" />
<use x="170" y="180" xlink:href="#p" />
<use x="180" y="180" xlink:href="#p" />
<use x="190" y="180" xlink:href="#p" />
<use x="200" y="180" xlink:href="#p" />
<use x="210" y="180" xlink:href="#p" />
<use x="220" y="180" xlink:href="#p" />
<use x="240" y="180" xlink:href="#p" />
<use x="250" y="180" xlink:href="#p" />
<use x="260" y="180" xlink:href="#p" />
<use x="100" y="190" xlink:href="#p" />
<use x="110" y="190" xlink:href="#p" />
<use x="140" y="190" xlink:href="#p" />
<use x="180" y="190" xlink:href="#p" />
<use x="220" y="190" xlink:href="#p" />
<use x="230" y="190" xlink:href="#p" />
<use x="260" y="190" xlink:href="#p" />
<use x="20" y="200" xlink:href="#p" />
<use x="30" y="200" xlink:href="#p" />
<use x="40" y="200" xlink:href="#p" />
<use x="50" y="200" xlink:href="#p" />
<use x="60" y="200" xlink:href="#p" />
<use x="70" y="200" xlink:href="#p" />
<use x="80" y="200" xlink:href="#p" />
<use x="100" y="200" xlink:href="#p" />
<use x="120" y="200" xlink:href="#p" />
<use x="130" y="200" xlink:href="#p" />
<use x="140" y="200" xlink:href="#p" />
<use x="160" y="200" xlink:href="#p" />
<use x="180" y="200" xlink:href="#p" />
<use x="200" y="200" xlink:href="#p" />
<use x="220" y="200" xlink:href="#p" />
<use x="230" y="200" xlink:href="#p" />
<use x="250" y="200" xlink:href="#p" />
<use x="260" y="200" xlink:href="#p" />
<use x="20" y="210" xlink:href="#p" />
<use x="80" y="210" xlink:href="#p" />
<use x="100" y="210" xlink:href="#p" />
<use x="110" y="210" xlink:href="#p" />
<use x="140" y="210" xlink:href="#p" />
<use x="170" y="210" xlink:href="#p" />
<use x="180" y="210" xlink:href="#p" />
<use x="220" y="210" xlink:href="#p" />
<use x="230" y="210" xlink:href="#p" />
<use x="250" y="210" xlink:href="#p" />
<use x="260" y="210" xlink:href="#p" />
<use x="20" y="220" xlink:href="#p" />
<use x="40" y="220" xlink:href="#p" />
<use x="50" y="220" xlink:href="#p" />
<use x="60" y="220" xlink:href="#p" />
<use x="80" y="220" xlink:href="#p" />
<use x="120" y="220" xlink:href="#p" />
<use x="130" y="220" xlink:href="#p" />
<use x="140" y="220" xlink:href="#p" />
<use x="150" y="220" xlink:href="#p" />
<use x="180" y="220" xlink:href="#p" />
<use x="190" y="220" xlink:href="#p" />
<use x="200" y="220" xlink:href="#p" />
<use x="210" y="220" xlink:href="#p" />
<use x="220" y="220" xlink:href="#p" />
<use x="250" y="220" xlink:href="#p" />
<use x="20" y="230" xlink:href="#p" />
<use x="40" y="230" xlink:href="#p" />
<use x="50" y="230" xlink:href="#p" />
<use x="60" y="230" xlink:href="#p" />
<use x="80" y="230" xlink:href="#p" />
<use x="100" y="230" xlink:href="#p" />
<use x="110" y="230" xlink:href="#p" />
<use x="140" y="230" xlink:href="#p" />
<use x="150" y="230" xlink:href="#p" />
<use x="170" y="230" xlink:href="#p" />
<use x="190" y="230" xlink:href="#p" />
<use x="200" y="230" xlink:href="#p" />
<use x="220" y="230" xlink:href="#p" />
<use x="250" y="230" xlink:href="#p" />
<use x="260" y="230" xlink:href="#p" />
<use x="20" y="240" xlink:href="#p" />
<use x="40" y="240" xlink:href="#p" />
<use x="50" y="240" xlink:href="#p" />
<use x="60" y="240" xlink:href="#p" />
<use x="80" y="240" xlink:href="#p" />
<use x="100" y="240" xlink:href="#p" />
<use x="120" y="240" xlink:href="#p" />
<use x="130" y="240" xlink:href="#p" />
<use x="140" y="240" xlink:href="#p" />
<use x="150" y="240" xlink:href="#p" />
<use x="170" y="240" xlink:href="#p" />
<use x="180" y="240" xlink:href="#p" />
<use x="190" y="240" xlink:href="#p" />
<use x="200" y="240" xlink:href="#p" />
<use x="210" y="240" xlink:href="#p" />
<use x="220" y="240" xlink:href="#p" />
<use x="230" y="240" xlink:href="#p" />
<use x="250" y="240" xlink:href="#p" />
<use x="20" y="250" xlink:href="#p" />
<use x="80" y="250" xlink:href="#p" />
<use x="110" y="250" xlink:href="#p" />
<use x="120" y="250" xlink:href="#p" />
<use x="190" y="250" xlink:href="#p" />
<use x="200" y="250" xlink:href="#p" />
<use x="210" y="250" xlink:href="#p" />
<use x="230" y="250" xlink:href="#p" />
<use x="240" y="250" xlink:href="#p" />
<use x="20" y="260" xlink:href="#p" />
<use x="30" y="260" xlink:href="#p" />
<use x="40" y="260" xlink:href="#p" />
<use x="50" y="260" xlink:href="#p" />
<use x="60" y="260" xlink:href="#p" />
<use x="70" y="260" xlink:href="#p" />
<use x="80" y="260" xlink:href="#p" />
<use x="100" y="260" xlink:href="#p" />
<use x="140" y="260" xlink:href="#p" />
<use x="160" y="260" xlink:href="#p" />
<use x="190" y="260" xlink:href="#p" />
<use x="210" y="260" xlink:href="#p" />
<use x="240" y="260" xlink:href="#p" />
<use x="250" y="260" xlink:href="#p" />
<use x="260" y="260" xlink:href="#p" />
</g>
</svg>